SplineFontDB: 3.0
FontName: Neuton-Hebrew
FullName: Neuton Hebrew
FamilyName: Neuton
Weight: Medium
Copyright: Created by Brian with FontForge 2.0 (http://fontforge.sf.net)
UComments: "2011-9-18: Created." 
Version: 001.000
ItalicAngle: 0
UnderlinePosition: -205
UnderlineWidth: 102
Ascent: 1638
Descent: 410
LayerCount: 2
Layer: 0 0 "Back"  1
Layer: 1 0 "Fore"  0
NeedsXUIDChange: 1
XUID: [1021 467 2011608612 16390363]
OS2Version: 0
OS2_WeightWidthSlopeOnly: 0
OS2_UseTypoMetrics: 1
CreationTime: 1316368968
ModificationTime: 1316394567
OS2TypoAscent: 0
OS2TypoAOffset: 1
OS2TypoDescent: 0
OS2TypoDOffset: 1
OS2TypoLinegap: 0
OS2WinAscent: 0
OS2WinAOffset: 1
OS2WinDescent: 0
OS2WinDOffset: 1
HheadAscent: 0
HheadAOffset: 1
HheadDescent: 0
HheadDOffset: 1
OS2Vendor: 'PfEd'
MarkAttachClasses: 1
DEI: 91125
Encoding: Custom
UnicodeInterp: none
NameList: Adobe Glyph List
DisplaySize: -36
AntiAlias: 1
FitToEm: 1
WinInfo: 0 16 9
BeginPrivate: 0
EndPrivate
BeginChars: 31 29

StartChar: afii57664
Encoding: 0 1488 0
Width: 835
VWidth: 0
Flags: HWO
LayerCount: 2
Fore
SplineSet
735.504 558.291 m 1
 719.783 581.517 673.385 620.518 643.412 622.922 c 1
 617.496 625.017 546 434 534 308 c 1
 428 382 l 1
 584.683 681.846 l 1
 434.168 804 l 1
 441.285 865.183 448.085 919.653 454 962 c 1
 514.297 977 l 1
 540.829 916.917 580.825 878.797 638.565 836.005 c 2
 704.792 786.508 l 2
 782.567 728.38 795.925 652.329 735.504 558.291 c 1
695 -6 m 1
 642.963 -7 l 1
 620 56 564 128 514.292 190 c 2
 103.99 702 l 1
 106 614 107.398 448.275 107.398 357.128 c 0
 107.398 184 130.092 152.819 224.066 152.819 c 0
 249.668 152.819 260 154 280.067 155 c 1
 258.443 30 l 1
 229.87 7 178.167 -9 112.167 -9 c 0
 58.0195 -9 -23.4658 22.9902 -23.4658 79 c 0
 -23.4658 201.181 30.457 740.89 60.9238 959 c 1
 140.221 974 l 1
 154 898 198 815 251.1 753 c 2
 617.426 306 l 2
 711.159 191.828 818 110 695 -6 c 1
EndSplineSet
EndChar

StartChar: afii57665
Encoding: 1 1489 1
Width: 880
VWidth: 0
Flags: HW
LayerCount: 2
Fore
SplineSet
69 29 m 5
 101 158 l 5
 294.666 156.253 488.334 154.532 682 158 c 5
 692 252 692.638 377.932 692.638 500.378 c 4
 692.638 654 662 723 605 723 c 6
 157 723 l 5
 103 756 l 5
 138 952 l 5
 210 973 l 5
 230 920 254 882 332 882 c 6
 669 880 l 6
 739 880 775 821.273 775 673 c 7
 775 468.921 768 355 748 217 c 5
 794 139 l 5
 768 0 l 5
 644 -8 408.81 -10.3564 95 -10 c 5
 69 29 l 5
EndSplineSet
EndChar

StartChar: afii57666
Encoding: 2 1490 2
Width: 578
VWidth: 0
Flags: HW
LayerCount: 2
Fore
SplineSet
45 97 m 0
 45 133 52 164 63 179 c 1
 95 168 125 163 153 163 c 0
 269 163 338 253 371 332 c 1
 372 600 l 2
 372 647 354 665 317 676 c 2
 129 732 l 1
 111 755 l 1
 127 963 l 1
 194 969 l 1
 228 879 l 1
 338 847 l 2
 390 832 438 803 444 655 c 2
 457 358 l 2
 463 221 512 63 522 11 c 1
 431 -5 l 1
 408 19 l 1
 391 253 l 1
 379 253 l 1
 358 159 321 45 242 0 c 1
 65 0 l 1
 50 32 45 67 45 97 c 0
EndSplineSet
EndChar

StartChar: afii57667
Encoding: 3 1491 3
Width: 805
VWidth: 0
Flags: HW
LayerCount: 2
Fore
SplineSet
35 738 m 1
 51 961 l 1
 124 971 l 1
 159 866 l 1
 714 866 l 1
 740 836 l 1
 713 709 l 1
 664 696 l 1
 680 237 l 1
 709 6 l 1
 615 -10 l 1
 581 15 l 1
 598 709 l 1
 61 709 l 1
 35 738 l 1
EndSplineSet
EndChar

StartChar: afii57668
Encoding: 4 1492 4
Width: 844
VWidth: 0
Flags: HW
LayerCount: 2
Fore
SplineSet
73 738 m 1
 89 961 l 1
 162 971 l 1
 197 866 l 1
 752 866 l 1
 778 836 l 1
 751 709 l 1
 702 696 l 1
 721 266 l 2
 726 149 734 84 747 6 c 1
 653 -10 l 1
 619 15 l 1
 636 709 l 1
 99 709 l 1
 73 738 l 1
118 8 m 1
 146 560 l 1
 213 568 l 1
 228 266 l 2
 233 177 240 91 250 0 c 1
 152 -16 l 1
 118 8 l 1
EndSplineSet
EndChar

StartChar: afii57669
Encoding: 5 1493 5
Width: 477
VWidth: 0
Flags: HW
LayerCount: 2
Fore
SplineSet
41 755 m 1
 57 963 l 1
 125 969 l 1
 159 879 l 1
 269 847 l 2
 321 832 373 803 375 655 c 2
 378 263 l 2
 379 192 384 78 394 0 c 1
 300 -16 l 1
 264 8 l 1
 303 600 l 2
 304 606 304 610 304 615 c 0
 304 653 281 666 248 676 c 2
 59 732 l 1
 41 755 l 1
EndSplineSet
EndChar

StartChar: afii57670
Encoding: 6 1494 6
Width: 446
VWidth: 0
Flags: HW
LayerCount: 2
Fore
SplineSet
59 761 m 1
 79 966 l 1
 144 971 l 1
 177 886 l 1
 370 832 l 1
 396 802 l 1
 391 657 l 1
 381 653 l 1
 273 681 l 1
 247 642 240 591 240 546 c 0
 240 510 244 478 246 455 c 2
 267 263 l 1
 277 185 298 62 313 -3 c 1
 211 -19 l 1
 177 5 l 1
 154 426 l 2
 153 436 152 451 152 470 c 0
 152 536 163 641 222 684 c 1
 222 695 l 1
 85 732 l 1
 59 761 l 1
EndSplineSet
EndChar

StartChar: afii57671
Encoding: 7 1495 7
Width: 873
VWidth: 0
Flags: HW
LayerCount: 2
Fore
SplineSet
99 8 m 1
 130 738 l 1
 139 961 l 1
 213 971 l 1
 247 866 l 1
 781 866 l 1
 806 836 l 1
 779 709 l 1
 730 696 l 1
 749 266 l 2
 754 149 763 84 776 6 c 1
 681 -10 l 1
 647 15 l 1
 664 709 l 1
 200 709 l 1
 210 299 l 2
 212 210 223 62 231 0 c 1
 133 -16 l 1
 99 8 l 1
EndSplineSet
EndChar

StartChar: afii57672
Encoding: 8 1496 8
Width: 888
VWidth: 0
Flags: HW
LayerCount: 2
Fore
SplineSet
80 758 m 1
 109 961 l 1
 175 966 l 1
 207 881 l 1
 354 816 l 1
 367 785 l 1
 344 644 l 1
 334 641 l 1
 245 679 l 1
 210 639 191 588 191 504 c 0
 191 420 228 237 259 143 c 1
 606 160 l 1
 663 204 751 364 751 517 c 0
 751 625 646 709 552 709 c 1
 494 677 466 520 458 455 c 1
 388 447 l 1
 461 896 l 1
 472 901 485 904 500 904 c 0
 679 904 830 768 830 589 c 0
 830 353 734 134 677 5 c 1
 181 -16 l 1
 155 13 l 1
 155 13 113 272 113 440 c 0
 113 540 140 641 189 686 c 1
 189 696 l 1
 106 729 l 1
 80 758 l 1
EndSplineSet
EndChar

StartChar: afii57673
Encoding: 9 1497 9
Width: 470
VWidth: 0
Flags: HW
LayerCount: 2
Fore
SplineSet
64 755 m 1
 80 963 l 1
 147 969 l 1
 181 879 l 1
 292 831 l 1
 344 816 398 725 398 639 c 0
 398 582 378 496 378 496 c 2
 372 446 360 405 352 368 c 1
 259 372 l 1
 241 402 l 1
 241 402 326 527 326 584 c 0
 326 621 307 649 270 660 c 1
 82 732 l 1
 64 755 l 1
EndSplineSet
EndChar

StartChar: afii57674
Encoding: 10 1498 10
Width: 776
VWidth: 0
Flags: HW
LayerCount: 2
Fore
SplineSet
8 738 m 1
 24 961 l 1
 97 971 l 1
 132 866 l 1
 687 866 l 1
 713 836 l 1
 686 709 l 1
 637 696 l 1
 673 -15 l 2
 676 -86 679 -282 689 -360 c 1
 595 -376 l 1
 560 -351 l 1
 572 709 l 1
 34 709 l 1
 8 738 l 1
EndSplineSet
EndChar

StartChar: afii57675
Encoding: 11 1499 11
Width: 873
VWidth: 0
Flags: HW
LayerCount: 2
Fore
SplineSet
70 16 m 1
 104 147 l 1
 549 174 l 1
 636 177 725 247 725 411 c 0
 725 577 664 662 495 681 c 2
 107 723 l 1
 82 760 l 1
 97 979 l 1
 168 989 l 1
 211 884 l 1
 530 849 l 2
 724 827 814 699 814 462 c 0
 814 244 762 104 658 15 c 1
 97 -13 l 1
 70 16 l 1
EndSplineSet
EndChar

StartChar: afii57676
Encoding: 12 1500 12
Width: 796
VWidth: 0
Flags: HW
LayerCount: 2
Fore
SplineSet
51 748 m 1
 66 1292 l 1
 217 1294 l 1
 243 1271 l 1
 236 1138 l 1
 141 1130 l 1
 159 870 l 1
 559 870 l 2
 733 870 764 804 764 615 c 0
 764 397 601 246 505 138 c 2
 367 -16 l 1
 194 3 l 1
 175 29 l 1
 299 117 l 2
 447 223 674 400 674 564 c 0
 674 686 637 712 497 712 c 2
 76 712 l 1
 51 748 l 1
EndSplineSet
EndChar

StartChar: afii57677
Encoding: 13 1501 13
Width: 821
VWidth: 0
Flags: HW
LayerCount: 2
Fore
SplineSet
106 723 m 1
 116 961 l 1
 189 971 l 1
 223 866 l 1
 687 866 l 2
 757 866 794 821 794 673 c 2
 794 189 l 2
 794 23 728 0 679 0 c 2
 147 0 l 1
 121 29 l 1
 121 29 109 413 109 491 c 0
 109 536 131 632 218 692 c 1
 218 705 l 1
 124 705 l 1
 106 723 l 1
202 521 m 0
 202 365 210 231 226 160 c 1
 696 160 l 1
 707 184 715 245 715 294 c 2
 715 305 l 1
 709 632 l 2
 707 695 689 709 653 709 c 2
 284 709 l 1
 218 644 202 579 202 521 c 0
EndSplineSet
EndChar

StartChar: afii57678
Encoding: 14 1502 14
Width: 885
VWidth: 0
Flags: HW
LayerCount: 2
Fore
SplineSet
88 732 m 1
 95 887 l 1
 121 907 l 1
 225 845 279 739 300 692 c 1
 300 692 418 873 534 873 c 0
 731 873 809 657 814 455 c 1
 814 274 745 71 708 6 c 1
 352 -10 l 1
 326 11 l 1
 359 150 l 1
 704 164 l 1
 715 190 721 254 724 314 c 2
 729 415 l 1
 723 550 623 705 472 705 c 0
 267 705 214 452 214 247 c 0
 214 151 215 78 225 0 c 1
 131 -16 l 1
 95 8 l 1
 98 234 124 448 235 611 c 1
 88 732 l 1
EndSplineSet
EndChar

StartChar: afii57679
Encoding: 15 1503 15
Width: 372
VWidth: 0
Flags: HW
LayerCount: 2
Fore
SplineSet
23 737 m 1
 42 935 l 1
 100 940 l 1
 130 858 l 1
 197 837 l 2
 245 822 278 798 278 689 c 0
 278 679 278 669 277 658 c 2
 267 471 l 2
 266 451 266 427 266 403 c 0
 266 285 277 127 283 -31 c 1
 289 -166 298 -298 308 -376 c 1
 213 -392 l 1
 177 -368 l 1
 189 394 l 2
 189 428 190 447 195 479 c 1
 208 600 l 1
 208 608 l 2
 208 655 167 680 130 689 c 1
 42 713 l 1
 23 737 l 1
EndSplineSet
EndChar

StartChar: afii57680
Encoding: 16 1504 16
Width: 450
VWidth: 0
Flags: HW
LayerCount: 2
Fore
SplineSet
89 160 m 17
 184 160 l 2
 218 160 255 182 255 232 c 2
 255 394 l 2
 255 428 257 447 262 479 c 1
 275 600 l 1
 275 608 l 2
 275 655 234 680 197 689 c 1
 109 713 l 1
 89 737 l 1
 109 935 l 1
 166 940 l 1
 197 858 l 1
 263 837 l 2
 311 822 344 798 344 689 c 0
 344 679 344 669 343 658 c 2
 334 471 l 2
 333 462 333 453 333 444 c 0
 333 331 366 208 366 130 c 0
 366 73 365 47 337 0 c 1
 83 0 l 9
 89 160 l 17
EndSplineSet
EndChar

StartChar: afii57681
Encoding: 17 1505 17
Width: 859
VWidth: 0
Flags: HW
LayerCount: 2
Fore
SplineSet
85 723 m 1
 95 961 l 1
 168 971 l 1
 202 866 l 1
 522 866 l 2
 706 866 802 724 802 513 c 0
 802 292 727 108 522 0 c 1
 306 0 l 1
 177 68 93 231 93 410 c 0
 93 540 122 640 164 692 c 1
 164 705 l 1
 103 705 l 1
 85 723 l 1
181 471 m 0
 181 321 291 186 364 160 c 1
 496 160 l 1
 620 196 713 257 713 462 c 0
 713 657 652 709 460 709 c 2
 231 709 l 1
 191 660 181 555 181 471 c 0
EndSplineSet
EndChar

StartChar: afii57682
Encoding: 18 1506 18
Width: 811
VWidth: 0
Flags: HW
LayerCount: 2
Fore
SplineSet
62 10 m 1
 94 150 l 1
 270 177 l 1
 253 368 l 2
 248 423 247 482 247 519 c 0
 247 563 265 616 265 645 c 0
 265 676 232 688 195 699 c 1
 105 723 l 1
 87 747 l 1
 104 945 l 1
 161 951 l 1
 194 870 l 1
 260 849 l 2
 300 836 346 825 346 749 c 0
 346 729 342 703 335 671 c 2
 313 582 l 1
 311 571 310 559 310 545 c 0
 310 449 353 284 377 194 c 1
 491 211 l 1
 525 217 553 242 563 270 c 1
 670 605 l 2
 678 630 681 647 681 660 c 0
 681 685 667 692 650 696 c 2
 513 734 l 1
 500 760 l 1
 547 953 l 1
 605 956 l 1
 619 884 l 1
 712 852 l 2
 741 841 758 821 758 770 c 0
 758 741 752 703 741 650 c 2
 637 198 l 1
 618 117 580 67 497 52 c 2
 87 -19 l 1
 62 10 l 1
EndSplineSet
EndChar

StartChar: afii57683
Encoding: 19 1507 19
Width: 772
VWidth: 0
Flags: HW
LayerCount: 2
Fore
SplineSet
33 573 m 0
 33 631 48 696 72 763 c 2
 150 974 l 1
 218 979 l 1
 226 879 l 1
 553 834 l 2
 634 823 645 805 653 655 c 2
 688 -16 l 2
 691 -87 694 -283 704 -361 c 1
 610 -377 l 1
 574 -353 l 1
 581 600 l 2
 581 650 563 670 519 676 c 2
 135 734 l 1
 133 720 132 706 132 694 c 0
 132 540 281 499 402 487 c 1
 403 482 402 478 402 473 c 0
 402 414 366 359 329 329 c 1
 113 338 33 437 33 573 c 0
EndSplineSet
EndChar

StartChar: afii57684
Encoding: 20 1508 20
Width: 859
VWidth: 0
Flags: HW
LayerCount: 2
Fore
SplineSet
59 8 m 1
 92 147 l 1
 690 174 l 1
 699 195 706 234 706 279 c 0
 706 290 705 302 704 314 c 2
 687 597 l 2
 684 660 668 668 632 673 c 2
 183 734 l 1
 181 720 180 706 180 694 c 0
 180 540 328 499 449 487 c 1
 450 482 450 478 450 473 c 0
 450 414 414 359 377 329 c 1
 161 338 81 437 81 573 c 0
 81 631 96 696 120 763 c 2
 198 974 l 1
 266 979 l 1
 274 879 l 1
 666 831 l 2
 736 822 767 785 772 637 c 1
 788 268 l 1
 788 259 l 2
 788 152 704 45 654 13 c 1
 85 -13 l 1
 59 8 l 1
EndSplineSet
EndChar

StartChar: afii57685
Encoding: 21 1509 21
Width: 628
VWidth: 0
Flags: HW
LayerCount: 2
Fore
SplineSet
19 742 m 1
 39 940 l 1
 96 947 l 1
 127 865 l 1
 194 842 l 1
 242 827 275 803 275 694 c 0
 275 684 275 674 274 663 c 2
 264 476 l 1
 258 312 270 240 270 144 c 1
 280 -31 l 2
 287 -166 294 -298 304 -376 c 1
 210 -392 l 1
 174 -368 l 1
 185 271 l 1
 205 605 l 1
 205 613 l 2
 205 660 164 683 127 692 c 1
 39 718 l 1
 19 742 l 1
248 330 m 1
 275 330 l 1
 482 621 l 2
 496 640 500 655 500 666 c 0
 500 674 497 681 493 683 c 2
 358 756 l 1
 350 784 l 1
 432 953 l 1
 485 943 l 1
 488 884 l 1
 576 834 l 2
 599 821 619 797 619 759 c 0
 619 727 606 686 566 631 c 2
 335 310 l 1
 299 262 278 201 262 150 c 1
 260 205 250 281 248 330 c 1
EndSplineSet
EndChar

StartChar: afii57686
Encoding: 22 1510 22
Width: 887
VWidth: 0
Flags: HW
LayerCount: 2
Fore
SplineSet
66 13 m 1
 99 143 l 1
 632 169 l 1
 634 177 l 1
 421 397 l 2
 348 473 330 508 330 595 c 0
 330 689 297 709 255 709 c 2
 107 707 l 1
 83 743 l 1
 97 961 l 1
 169 971 l 1
 211 866 l 1
 273 866 l 2
 343 866 392 796 392 725 c 0
 392 617 399 585 457 527 c 1
 739 276 l 1
 789 234 821 191 821 117 c 0
 821 72 792 35 776 16 c 1
 92 -16 l 1
 66 13 l 1
538 447 m 1
 561 447 l 1
 671 644 l 1
 684 664 689 680 689 691 c 0
 689 699 687 703 683 705 c 2
 548 779 l 1
 540 806 l 1
 623 976 l 1
 675 966 l 1
 678 907 l 1
 766 857 l 2
 789 844 809 821 809 784 c 0
 809 752 794 710 756 653 c 1
 594 398 l 1
 538 447 l 1
EndSplineSet
EndChar

StartChar: afii57687
Encoding: 23 1511 23
Width: 838
VWidth: 0
Flags: HW
LayerCount: 2
Fore
SplineSet
74 745 m 1
 89 964 l 1
 160 974 l 1
 202 870 l 1
 521 870 l 2
 721 870 789 774 789 624 c 0
 789 484 728 380 581 134 c 2
 509 11 l 1
 352 31 l 1
 333 57 l 1
 422 150 l 2
 548 283 679 387 679 556 c 0
 679 630 644 710 504 710 c 2
 99 709 l 1
 74 745 l 1
121 -351 m 1
 138 560 l 1
 201 568 l 1
 228 -15 l 2
 231 -86 241 -282 251 -360 c 1
 157 -376 l 1
 121 -351 l 1
EndSplineSet
EndChar

StartChar: afii57688
Encoding: 24 1512 24
Width: 825
VWidth: 0
Flags: HW
LayerCount: 2
Fore
SplineSet
36 743 m 1
 51 961 l 1
 123 971 l 1
 165 866 l 1
 620 866 l 2
 690 866 723 821 726 673 c 2
 736 263 l 2
 738 192 742 78 752 0 c 1
 658 -16 l 1
 622 8 l 1
 641 632 l 1
 641 639 l 2
 641 696 620 709 586 709 c 2
 61 707 l 1
 36 743 l 1
EndSplineSet
EndChar

StartChar: afii57689
Encoding: 25 1513 25
Width: 959
VWidth: 0
Flags: HW
LayerCount: 2
Fore
SplineSet
80 758 m 1
 109 961 l 1
 175 966 l 1
 207 881 l 1
 309 839 l 1
 334 808 l 1
 298 666 l 1
 290 663 l 1
 247 679 l 1
 211 639 191 589 191 504 c 0
 191 466 228 244 259 150 c 1
 623 179 l 1
 707 250 828 542 828 616 c 0
 828 653 804 677 764 692 c 2
 675 723 l 1
 658 747 l 1
 683 953 l 1
 742 963 l 1
 777 873 l 1
 812 857 l 1
 870 829 903 800 903 730 c 0
 903 512 734 156 661 24 c 1
 181 -10 l 1
 165 5 160 13 155 19 c 1
 155 19 113 274 113 440 c 0
 113 540 140 641 189 686 c 1
 189 696 l 1
 106 729 l 1
 80 758 l 1
248 161 m 1
 423 960 l 1
 490 964 l 1
 522 876 l 1
 601 845 l 1
 619 811 l 1
 589 673 l 1
 578 671 l 1
 451 712 l 1
 310 146 l 1
 250 141 l 1
 248 149 250 152 248 161 c 1
EndSplineSet
EndChar

StartChar: afii57690
Encoding: 26 1514 26
Width: 896
VWidth: 0
Flags: HW
LayerCount: 2
Fore
SplineSet
75 70 m 1
 154 108 l 1
 159 120 160 136 160 154 c 0
 160 233 122 354 122 436 c 0
 122 532 139 615 191 699 c 1
 191 707 l 1
 121 707 l 1
 96 743 l 1
 111 961 l 1
 183 971 l 1
 225 866 l 1
 680 866 l 2
 750 866 777 821 786 673 c 2
 809 286 l 2
 814 202 824 53 827 8 c 1
 735 -8 l 1
 701 16 l 1
 701 632 l 2
 701 695 682 709 646 709 c 2
 253 708 l 1
 230 666 202 573 202 510 c 0
 202 381 326 261 326 111 c 0
 326 69 313 46 295 2 c 1
 93 0 l 1
 75 70 l 1
EndSplineSet
EndChar

StartChar: uni05D0.alt
Encoding: 27 0 27
Width: 835
VWidth: 0
Flags: HW
LayerCount: 2
Fore
SplineSet
767.119 761.773 m 5
 789.101 712.449 774.575 617.297 760 590 c 5
 748.19 586.927 l 5
 516 746 l 5
 485.033 654.781 450 457.147 450 366 c 5
 391.663 394 l 5
 410.066 594.356 436.087 833.763 454 962 c 5
 514.297 977 l 5
 559.26 875.18 688 794 767.119 761.773 c 5
766.425 142 m 5
 766.425 88 714.425 7 690 -12 c 5
 677.963 -10 l 5
 103.99 702 l 5
 106 614 107.398 448.275 107.398 357.128 c 4
 107.398 184 130.092 152.819 224.066 152.819 c 4
 249.668 152.819 260 154 280.067 155 c 5
 258.443 30 l 5
 229.87 7 178.167 -9 112.167 -9 c 4
 58.0195 -9 -23.4658 22.9902 -23.4658 79 c 4
 -23.4658 201.181 30.457 740.89 60.9238 959 c 5
 140.221 974 l 5
 154 898 198 815 251.1 753 c 6
 617.426 306 l 6
 679 231 732.425 179 766.425 142 c 5
EndSplineSet
EndChar

StartChar: uni05F9
Encoding: 28 1529 28
Width: 835
VWidth: 0
Flags: HW
LayerCount: 2
Fore
SplineSet
735.504 558.291 m 1
 719.783 581.517 673.385 620.518 643.412 622.922 c 1
 617.496 625.017 546 434 534 308 c 1
 428 382 l 1
 584.683 681.846 l 1
 434.168 804 l 1
 441.285 865.183 448.085 919.653 454 962 c 1
 514.297 977 l 1
 540.829 916.917 580.825 878.797 638.565 836.005 c 2
 704.792 786.508 l 2
 782.567 728.38 795.925 652.329 735.504 558.291 c 1
695 -6 m 1
 642.963 -7 l 1
 620 56 564 128 514.292 190 c 2
 103.99 702 l 1
 106 614 107.398 448.275 107.398 357.128 c 0
 107.398 184 130.092 152.819 224.066 152.819 c 0
 249.668 152.819 260 154 280.067 155 c 1
 258.443 30 l 1
 229.87 7 178.167 -9 112.167 -9 c 0
 58.0195 -9 -23.4658 22.9902 -23.4658 79 c 0
 -23.4658 201.181 30.457 740.89 60.9238 959 c 1
 140.221 974 l 1
 154 898 198 815 251.1 753 c 2
 617.426 306 l 2
 711.159 191.828 818 110 695 -6 c 1
EndSplineSet
EndChar
